<mxfile host="app.diagrams.net" agent="Mozilla/5.0 (Windows NT 10.0; Win64; x64) AppleWebKit/537.36 (KHTML, like Gecko) Chrome/130.0.0.0 Safari/537.36" version="24.8.6">
  <diagram name="Страница — 1" id="WNKR6Dwa6RHNGLzkEAJz">
    <mxGraphModel dx="875" dy="464" grid="1" gridSize="10" guides="1" tooltips="1" connect="1" arrows="1" fold="1" page="1" pageScale="1" pageWidth="827" pageHeight="1169" math="0" shadow="0">
      <root>
        <mxCell id="0" />
        <mxCell id="1" parent="0" />
        <mxCell id="LPXEo3yA1Ma1SsV-4tPt-6" value="Department" style="swimlane;fontStyle=1;align=center;verticalAlign=top;childLayout=stackLayout;horizontal=1;startSize=26;horizontalStack=0;resizeParent=1;resizeParentMax=0;resizeLast=0;collapsible=1;marginBottom=0;whiteSpace=wrap;html=1;" vertex="1" parent="1">
          <mxGeometry x="60" y="160" width="190" height="250" as="geometry" />
        </mxCell>
        <mxCell id="LPXEo3yA1Ma1SsV-4tPt-7" value="+ name: string" style="text;strokeColor=none;fillColor=none;align=left;verticalAlign=top;spacingLeft=4;spacingRight=4;overflow=hidden;rotatable=0;points=[[0,0.5],[1,0.5]];portConstraint=eastwest;whiteSpace=wrap;html=1;" vertex="1" parent="LPXEo3yA1Ma1SsV-4tPt-6">
          <mxGeometry y="26" width="190" height="44" as="geometry" />
        </mxCell>
        <mxCell id="LPXEo3yA1Ma1SsV-4tPt-27" value="+ teachers: list" style="text;strokeColor=none;fillColor=none;align=left;verticalAlign=top;spacingLeft=4;spacingRight=4;overflow=hidden;rotatable=0;points=[[0,0.5],[1,0.5]];portConstraint=eastwest;whiteSpace=wrap;html=1;" vertex="1" parent="LPXEo3yA1Ma1SsV-4tPt-6">
          <mxGeometry y="70" width="190" height="44" as="geometry" />
        </mxCell>
        <mxCell id="LPXEo3yA1Ma1SsV-4tPt-26" value="+ courses: list" style="text;strokeColor=none;fillColor=none;align=left;verticalAlign=top;spacingLeft=4;spacingRight=4;overflow=hidden;rotatable=0;points=[[0,0.5],[1,0.5]];portConstraint=eastwest;whiteSpace=wrap;html=1;" vertex="1" parent="LPXEo3yA1Ma1SsV-4tPt-6">
          <mxGeometry y="114" width="190" height="44" as="geometry" />
        </mxCell>
        <mxCell id="LPXEo3yA1Ma1SsV-4tPt-8" value="" style="line;strokeWidth=1;fillColor=none;align=left;verticalAlign=middle;spacingTop=-1;spacingLeft=3;spacingRight=3;rotatable=0;labelPosition=right;points=[];portConstraint=eastwest;strokeColor=inherit;" vertex="1" parent="LPXEo3yA1Ma1SsV-4tPt-6">
          <mxGeometry y="158" width="190" height="28" as="geometry" />
        </mxCell>
        <mxCell id="LPXEo3yA1Ma1SsV-4tPt-9" value="&lt;div&gt;&lt;div&gt;+ addTeacher(Teacher): bool&lt;/div&gt;&lt;/div&gt;" style="text;strokeColor=none;fillColor=none;align=left;verticalAlign=top;spacingLeft=4;spacingRight=4;overflow=hidden;rotatable=0;points=[[0,0.5],[1,0.5]];portConstraint=eastwest;whiteSpace=wrap;html=1;" vertex="1" parent="LPXEo3yA1Ma1SsV-4tPt-6">
          <mxGeometry y="186" width="190" height="22" as="geometry" />
        </mxCell>
        <mxCell id="LPXEo3yA1Ma1SsV-4tPt-28" value="&lt;div&gt;&lt;div&gt;+ removeTeacher(id): bool&lt;/div&gt;&lt;/div&gt;" style="text;strokeColor=none;fillColor=none;align=left;verticalAlign=top;spacingLeft=4;spacingRight=4;overflow=hidden;rotatable=0;points=[[0,0.5],[1,0.5]];portConstraint=eastwest;whiteSpace=wrap;html=1;" vertex="1" parent="LPXEo3yA1Ma1SsV-4tPt-6">
          <mxGeometry y="208" width="190" height="42" as="geometry" />
        </mxCell>
        <mxCell id="LPXEo3yA1Ma1SsV-4tPt-14" value="Faculty" style="swimlane;fontStyle=1;align=center;verticalAlign=top;childLayout=stackLayout;horizontal=1;startSize=26;horizontalStack=0;resizeParent=1;resizeParentMax=0;resizeLast=0;collapsible=1;marginBottom=0;whiteSpace=wrap;html=1;" vertex="1" parent="1">
          <mxGeometry x="330" y="210" width="230" height="120" as="geometry" />
        </mxCell>
        <mxCell id="LPXEo3yA1Ma1SsV-4tPt-15" value="+ name: string&lt;div&gt;+ departments: array&lt;/div&gt;&lt;div&gt;&lt;br&gt;&lt;/div&gt;" style="text;strokeColor=none;fillColor=none;align=left;verticalAlign=top;spacingLeft=4;spacingRight=4;overflow=hidden;rotatable=0;points=[[0,0.5],[1,0.5]];portConstraint=eastwest;whiteSpace=wrap;html=1;" vertex="1" parent="LPXEo3yA1Ma1SsV-4tPt-14">
          <mxGeometry y="26" width="230" height="44" as="geometry" />
        </mxCell>
        <mxCell id="LPXEo3yA1Ma1SsV-4tPt-16" value="" style="line;strokeWidth=1;fillColor=none;align=left;verticalAlign=middle;spacingTop=-1;spacingLeft=3;spacingRight=3;rotatable=0;labelPosition=right;points=[];portConstraint=eastwest;strokeColor=inherit;" vertex="1" parent="LPXEo3yA1Ma1SsV-4tPt-14">
          <mxGeometry y="70" width="230" height="8" as="geometry" />
        </mxCell>
        <mxCell id="LPXEo3yA1Ma1SsV-4tPt-17" value="+ addDepartment(Department): bool&lt;div&gt;+ removeDepartment(Department): bool&lt;br&gt;&lt;div&gt;&lt;br&gt;&lt;/div&gt;&lt;/div&gt;" style="text;strokeColor=none;fillColor=none;align=left;verticalAlign=top;spacingLeft=4;spacingRight=4;overflow=hidden;rotatable=0;points=[[0,0.5],[1,0.5]];portConstraint=eastwest;whiteSpace=wrap;html=1;" vertex="1" parent="LPXEo3yA1Ma1SsV-4tPt-14">
          <mxGeometry y="78" width="230" height="42" as="geometry" />
        </mxCell>
        <mxCell id="LPXEo3yA1Ma1SsV-4tPt-53" value="University" style="swimlane;fontStyle=1;align=center;verticalAlign=top;childLayout=stackLayout;horizontal=1;startSize=26;horizontalStack=0;resizeParent=1;resizeParentMax=0;resizeLast=0;collapsible=1;marginBottom=0;whiteSpace=wrap;html=1;" vertex="1" parent="1">
          <mxGeometry x="350" y="20" width="230" height="128" as="geometry" />
        </mxCell>
        <mxCell id="LPXEo3yA1Ma1SsV-4tPt-54" value="+ name: string&lt;div&gt;Phone Number&lt;/div&gt;&lt;div&gt;Email Adresss&lt;/div&gt;" style="text;strokeColor=none;fillColor=none;align=left;verticalAlign=top;spacingLeft=4;spacingRight=4;overflow=hidden;rotatable=0;points=[[0,0.5],[1,0.5]];portConstraint=eastwest;whiteSpace=wrap;html=1;" vertex="1" parent="LPXEo3yA1Ma1SsV-4tPt-53">
          <mxGeometry y="26" width="230" height="54" as="geometry" />
        </mxCell>
        <mxCell id="LPXEo3yA1Ma1SsV-4tPt-55" value="" style="line;strokeWidth=1;fillColor=none;align=left;verticalAlign=middle;spacingTop=-1;spacingLeft=3;spacingRight=3;rotatable=0;labelPosition=right;points=[];portConstraint=eastwest;strokeColor=inherit;" vertex="1" parent="LPXEo3yA1Ma1SsV-4tPt-53">
          <mxGeometry y="80" width="230" height="8" as="geometry" />
        </mxCell>
        <mxCell id="LPXEo3yA1Ma1SsV-4tPt-58" value="&lt;div&gt;&lt;div&gt;+ method(type): type&lt;/div&gt;&lt;/div&gt;" style="text;strokeColor=none;fillColor=none;align=left;verticalAlign=top;spacingLeft=4;spacingRight=4;overflow=hidden;rotatable=0;points=[[0,0.5],[1,0.5]];portConstraint=eastwest;whiteSpace=wrap;html=1;" vertex="1" parent="LPXEo3yA1Ma1SsV-4tPt-53">
          <mxGeometry y="88" width="230" height="40" as="geometry" />
        </mxCell>
        <mxCell id="LPXEo3yA1Ma1SsV-4tPt-22" value="Teacher" style="swimlane;fontStyle=1;align=center;verticalAlign=top;childLayout=stackLayout;horizontal=1;startSize=26;horizontalStack=0;resizeParent=1;resizeParentMax=0;resizeLast=0;collapsible=1;marginBottom=0;whiteSpace=wrap;html=1;" vertex="1" parent="1">
          <mxGeometry x="160" y="430" width="160" height="164" as="geometry" />
        </mxCell>
        <mxCell id="LPXEo3yA1Ma1SsV-4tPt-23" value="+ courses: list" style="text;strokeColor=none;fillColor=none;align=left;verticalAlign=top;spacingLeft=4;spacingRight=4;overflow=hidden;rotatable=0;points=[[0,0.5],[1,0.5]];portConstraint=eastwest;whiteSpace=wrap;html=1;" vertex="1" parent="LPXEo3yA1Ma1SsV-4tPt-22">
          <mxGeometry y="26" width="160" height="44" as="geometry" />
        </mxCell>
        <mxCell id="LPXEo3yA1Ma1SsV-4tPt-33" value="+ position: string" style="text;strokeColor=none;fillColor=none;align=left;verticalAlign=top;spacingLeft=4;spacingRight=4;overflow=hidden;rotatable=0;points=[[0,0.5],[1,0.5]];portConstraint=eastwest;whiteSpace=wrap;html=1;" vertex="1" parent="LPXEo3yA1Ma1SsV-4tPt-22">
          <mxGeometry y="70" width="160" height="44" as="geometry" />
        </mxCell>
        <mxCell id="LPXEo3yA1Ma1SsV-4tPt-24" value="" style="line;strokeWidth=1;fillColor=none;align=left;verticalAlign=middle;spacingTop=-1;spacingLeft=3;spacingRight=3;rotatable=0;labelPosition=right;points=[];portConstraint=eastwest;strokeColor=inherit;" vertex="1" parent="LPXEo3yA1Ma1SsV-4tPt-22">
          <mxGeometry y="114" width="160" height="28" as="geometry" />
        </mxCell>
        <mxCell id="LPXEo3yA1Ma1SsV-4tPt-25" value="&lt;div&gt;&lt;div&gt;+ method(type): type&lt;/div&gt;&lt;/div&gt;" style="text;strokeColor=none;fillColor=none;align=left;verticalAlign=top;spacingLeft=4;spacingRight=4;overflow=hidden;rotatable=0;points=[[0,0.5],[1,0.5]];portConstraint=eastwest;whiteSpace=wrap;html=1;" vertex="1" parent="LPXEo3yA1Ma1SsV-4tPt-22">
          <mxGeometry y="142" width="160" height="22" as="geometry" />
        </mxCell>
        <mxCell id="LPXEo3yA1Ma1SsV-4tPt-71" style="edgeStyle=orthogonalEdgeStyle;rounded=0;orthogonalLoop=1;jettySize=auto;html=1;entryX=1;entryY=0.5;entryDx=0;entryDy=0;" edge="1" parent="1" source="LPXEo3yA1Ma1SsV-4tPt-29" target="LPXEo3yA1Ma1SsV-4tPt-28">
          <mxGeometry relative="1" as="geometry" />
        </mxCell>
        <mxCell id="LPXEo3yA1Ma1SsV-4tPt-74" value="1:*" style="edgeLabel;html=1;align=center;verticalAlign=middle;resizable=0;points=[];" vertex="1" connectable="0" parent="LPXEo3yA1Ma1SsV-4tPt-71">
          <mxGeometry x="0.8956" y="-1" relative="1" as="geometry">
            <mxPoint as="offset" />
          </mxGeometry>
        </mxCell>
        <mxCell id="LPXEo3yA1Ma1SsV-4tPt-29" value="Course" style="swimlane;fontStyle=1;align=center;verticalAlign=top;childLayout=stackLayout;horizontal=1;startSize=26;horizontalStack=0;resizeParent=1;resizeParentMax=0;resizeLast=0;collapsible=1;marginBottom=0;whiteSpace=wrap;html=1;" vertex="1" parent="1">
          <mxGeometry x="650" y="490" width="160" height="252" as="geometry" />
        </mxCell>
        <mxCell id="LPXEo3yA1Ma1SsV-4tPt-30" value="+ name: string" style="text;strokeColor=none;fillColor=none;align=left;verticalAlign=top;spacingLeft=4;spacingRight=4;overflow=hidden;rotatable=0;points=[[0,0.5],[1,0.5]];portConstraint=eastwest;whiteSpace=wrap;html=1;" vertex="1" parent="LPXEo3yA1Ma1SsV-4tPt-29">
          <mxGeometry y="26" width="160" height="44" as="geometry" />
        </mxCell>
        <mxCell id="LPXEo3yA1Ma1SsV-4tPt-34" value="+ department: department" style="text;strokeColor=none;fillColor=none;align=left;verticalAlign=top;spacingLeft=4;spacingRight=4;overflow=hidden;rotatable=0;points=[[0,0.5],[1,0.5]];portConstraint=eastwest;whiteSpace=wrap;html=1;" vertex="1" parent="LPXEo3yA1Ma1SsV-4tPt-29">
          <mxGeometry y="70" width="160" height="44" as="geometry" />
        </mxCell>
        <mxCell id="LPXEo3yA1Ma1SsV-4tPt-35" value="+ students: list" style="text;strokeColor=none;fillColor=none;align=left;verticalAlign=top;spacingLeft=4;spacingRight=4;overflow=hidden;rotatable=0;points=[[0,0.5],[1,0.5]];portConstraint=eastwest;whiteSpace=wrap;html=1;" vertex="1" parent="LPXEo3yA1Ma1SsV-4tPt-29">
          <mxGeometry y="114" width="160" height="44" as="geometry" />
        </mxCell>
        <mxCell id="LPXEo3yA1Ma1SsV-4tPt-36" value="+ schedule: list" style="text;strokeColor=none;fillColor=none;align=left;verticalAlign=top;spacingLeft=4;spacingRight=4;overflow=hidden;rotatable=0;points=[[0,0.5],[1,0.5]];portConstraint=eastwest;whiteSpace=wrap;html=1;" vertex="1" parent="LPXEo3yA1Ma1SsV-4tPt-29">
          <mxGeometry y="158" width="160" height="44" as="geometry" />
        </mxCell>
        <mxCell id="LPXEo3yA1Ma1SsV-4tPt-31" value="" style="line;strokeWidth=1;fillColor=none;align=left;verticalAlign=middle;spacingTop=-1;spacingLeft=3;spacingRight=3;rotatable=0;labelPosition=right;points=[];portConstraint=eastwest;strokeColor=inherit;" vertex="1" parent="LPXEo3yA1Ma1SsV-4tPt-29">
          <mxGeometry y="202" width="160" height="28" as="geometry" />
        </mxCell>
        <mxCell id="LPXEo3yA1Ma1SsV-4tPt-32" value="&lt;div&gt;&lt;div&gt;+ method(type): type&lt;/div&gt;&lt;/div&gt;" style="text;strokeColor=none;fillColor=none;align=left;verticalAlign=top;spacingLeft=4;spacingRight=4;overflow=hidden;rotatable=0;points=[[0,0.5],[1,0.5]];portConstraint=eastwest;whiteSpace=wrap;html=1;" vertex="1" parent="LPXEo3yA1Ma1SsV-4tPt-29">
          <mxGeometry y="230" width="160" height="22" as="geometry" />
        </mxCell>
        <mxCell id="LPXEo3yA1Ma1SsV-4tPt-37" value="Schedule" style="swimlane;fontStyle=1;align=center;verticalAlign=top;childLayout=stackLayout;horizontal=1;startSize=26;horizontalStack=0;resizeParent=1;resizeParentMax=0;resizeLast=0;collapsible=1;marginBottom=0;whiteSpace=wrap;html=1;" vertex="1" parent="1">
          <mxGeometry x="60" y="662" width="160" height="138" as="geometry" />
        </mxCell>
        <mxCell id="LPXEo3yA1Ma1SsV-4tPt-38" value="+ date: string&amp;nbsp;" style="text;strokeColor=none;fillColor=none;align=left;verticalAlign=top;spacingLeft=4;spacingRight=4;overflow=hidden;rotatable=0;points=[[0,0.5],[1,0.5]];portConstraint=eastwest;whiteSpace=wrap;html=1;" vertex="1" parent="LPXEo3yA1Ma1SsV-4tPt-37">
          <mxGeometry y="26" width="160" height="26" as="geometry" />
        </mxCell>
        <mxCell id="LPXEo3yA1Ma1SsV-4tPt-45" value="+ time: string" style="text;strokeColor=none;fillColor=none;align=left;verticalAlign=top;spacingLeft=4;spacingRight=4;overflow=hidden;rotatable=0;points=[[0,0.5],[1,0.5]];portConstraint=eastwest;whiteSpace=wrap;html=1;" vertex="1" parent="LPXEo3yA1Ma1SsV-4tPt-37">
          <mxGeometry y="52" width="160" height="26" as="geometry" />
        </mxCell>
        <mxCell id="LPXEo3yA1Ma1SsV-4tPt-46" value="+ classRoom: int" style="text;strokeColor=none;fillColor=none;align=left;verticalAlign=top;spacingLeft=4;spacingRight=4;overflow=hidden;rotatable=0;points=[[0,0.5],[1,0.5]];portConstraint=eastwest;whiteSpace=wrap;html=1;" vertex="1" parent="LPXEo3yA1Ma1SsV-4tPt-37">
          <mxGeometry y="78" width="160" height="26" as="geometry" />
        </mxCell>
        <mxCell id="LPXEo3yA1Ma1SsV-4tPt-39" value="" style="line;strokeWidth=1;fillColor=none;align=left;verticalAlign=middle;spacingTop=-1;spacingLeft=3;spacingRight=3;rotatable=0;labelPosition=right;points=[];portConstraint=eastwest;strokeColor=inherit;" vertex="1" parent="LPXEo3yA1Ma1SsV-4tPt-37">
          <mxGeometry y="104" width="160" height="8" as="geometry" />
        </mxCell>
        <mxCell id="LPXEo3yA1Ma1SsV-4tPt-40" value="+ method(type): type" style="text;strokeColor=none;fillColor=none;align=left;verticalAlign=top;spacingLeft=4;spacingRight=4;overflow=hidden;rotatable=0;points=[[0,0.5],[1,0.5]];portConstraint=eastwest;whiteSpace=wrap;html=1;" vertex="1" parent="LPXEo3yA1Ma1SsV-4tPt-37">
          <mxGeometry y="112" width="160" height="26" as="geometry" />
        </mxCell>
        <mxCell id="LPXEo3yA1Ma1SsV-4tPt-47" value="Student" style="swimlane;fontStyle=1;align=center;verticalAlign=top;childLayout=stackLayout;horizontal=1;startSize=26;horizontalStack=0;resizeParent=1;resizeParentMax=0;resizeLast=0;collapsible=1;marginBottom=0;whiteSpace=wrap;html=1;" vertex="1" parent="1">
          <mxGeometry x="430" y="550" width="160" height="112" as="geometry" />
        </mxCell>
        <mxCell id="LPXEo3yA1Ma1SsV-4tPt-48" value="+ idStudent: int" style="text;strokeColor=none;fillColor=none;align=left;verticalAlign=top;spacingLeft=4;spacingRight=4;overflow=hidden;rotatable=0;points=[[0,0.5],[1,0.5]];portConstraint=eastwest;whiteSpace=wrap;html=1;" vertex="1" parent="LPXEo3yA1Ma1SsV-4tPt-47">
          <mxGeometry y="26" width="160" height="26" as="geometry" />
        </mxCell>
        <mxCell id="LPXEo3yA1Ma1SsV-4tPt-52" value="+ courses: list" style="text;strokeColor=none;fillColor=none;align=left;verticalAlign=top;spacingLeft=4;spacingRight=4;overflow=hidden;rotatable=0;points=[[0,0.5],[1,0.5]];portConstraint=eastwest;whiteSpace=wrap;html=1;" vertex="1" parent="LPXEo3yA1Ma1SsV-4tPt-47">
          <mxGeometry y="52" width="160" height="26" as="geometry" />
        </mxCell>
        <mxCell id="LPXEo3yA1Ma1SsV-4tPt-49" value="" style="line;strokeWidth=1;fillColor=none;align=left;verticalAlign=middle;spacingTop=-1;spacingLeft=3;spacingRight=3;rotatable=0;labelPosition=right;points=[];portConstraint=eastwest;strokeColor=inherit;" vertex="1" parent="LPXEo3yA1Ma1SsV-4tPt-47">
          <mxGeometry y="78" width="160" height="8" as="geometry" />
        </mxCell>
        <mxCell id="LPXEo3yA1Ma1SsV-4tPt-50" value="+ method(type): type" style="text;strokeColor=none;fillColor=none;align=left;verticalAlign=top;spacingLeft=4;spacingRight=4;overflow=hidden;rotatable=0;points=[[0,0.5],[1,0.5]];portConstraint=eastwest;whiteSpace=wrap;html=1;" vertex="1" parent="LPXEo3yA1Ma1SsV-4tPt-47">
          <mxGeometry y="86" width="160" height="26" as="geometry" />
        </mxCell>
        <mxCell id="LPXEo3yA1Ma1SsV-4tPt-60" value="" style="edgeStyle=orthogonalEdgeStyle;rounded=0;orthogonalLoop=1;jettySize=auto;html=1;endArrow=diamondThin;endFill=1;" edge="1" parent="1" source="LPXEo3yA1Ma1SsV-4tPt-52" target="LPXEo3yA1Ma1SsV-4tPt-36">
          <mxGeometry relative="1" as="geometry" />
        </mxCell>
        <mxCell id="LPXEo3yA1Ma1SsV-4tPt-61" value="*" style="edgeLabel;html=1;align=center;verticalAlign=middle;resizable=0;points=[];" vertex="1" connectable="0" parent="LPXEo3yA1Ma1SsV-4tPt-60">
          <mxGeometry x="0.4122" relative="1" as="geometry">
            <mxPoint as="offset" />
          </mxGeometry>
        </mxCell>
        <mxCell id="LPXEo3yA1Ma1SsV-4tPt-62" value="*" style="edgeLabel;html=1;align=center;verticalAlign=middle;resizable=0;points=[];" vertex="1" connectable="0" parent="LPXEo3yA1Ma1SsV-4tPt-60">
          <mxGeometry x="-0.7704" y="2" relative="1" as="geometry">
            <mxPoint as="offset" />
          </mxGeometry>
        </mxCell>
        <mxCell id="LPXEo3yA1Ma1SsV-4tPt-67" style="edgeStyle=orthogonalEdgeStyle;rounded=0;orthogonalLoop=1;jettySize=auto;html=1;entryX=1;entryY=0.5;entryDx=0;entryDy=0;" edge="1" parent="1" source="LPXEo3yA1Ma1SsV-4tPt-15" target="LPXEo3yA1Ma1SsV-4tPt-26">
          <mxGeometry relative="1" as="geometry" />
        </mxCell>
        <mxCell id="LPXEo3yA1Ma1SsV-4tPt-72" value="*" style="edgeLabel;html=1;align=center;verticalAlign=middle;resizable=0;points=[];" vertex="1" connectable="0" parent="LPXEo3yA1Ma1SsV-4tPt-67">
          <mxGeometry x="0.6412" y="1" relative="1" as="geometry">
            <mxPoint as="offset" />
          </mxGeometry>
        </mxCell>
        <mxCell id="LPXEo3yA1Ma1SsV-4tPt-73" value="1:*" style="edgeLabel;html=1;align=center;verticalAlign=middle;resizable=0;points=[];" vertex="1" connectable="0" parent="LPXEo3yA1Ma1SsV-4tPt-67">
          <mxGeometry x="0.5989" y="4" relative="1" as="geometry">
            <mxPoint as="offset" />
          </mxGeometry>
        </mxCell>
        <mxCell id="LPXEo3yA1Ma1SsV-4tPt-68" style="edgeStyle=orthogonalEdgeStyle;rounded=0;orthogonalLoop=1;jettySize=auto;html=1;entryX=0.01;entryY=0.273;entryDx=0;entryDy=0;entryPerimeter=0;" edge="1" parent="1" source="LPXEo3yA1Ma1SsV-4tPt-33" target="LPXEo3yA1Ma1SsV-4tPt-30">
          <mxGeometry relative="1" as="geometry" />
        </mxCell>
        <mxCell id="LPXEo3yA1Ma1SsV-4tPt-69" value="*" style="edgeLabel;html=1;align=center;verticalAlign=middle;resizable=0;points=[];" vertex="1" connectable="0" parent="LPXEo3yA1Ma1SsV-4tPt-68">
          <mxGeometry x="0.8219" relative="1" as="geometry">
            <mxPoint as="offset" />
          </mxGeometry>
        </mxCell>
        <mxCell id="LPXEo3yA1Ma1SsV-4tPt-70" value="*" style="edgeLabel;html=1;align=center;verticalAlign=middle;resizable=0;points=[];" vertex="1" connectable="0" parent="LPXEo3yA1Ma1SsV-4tPt-68">
          <mxGeometry x="-0.8357" y="-1" relative="1" as="geometry">
            <mxPoint as="offset" />
          </mxGeometry>
        </mxCell>
        <mxCell id="LPXEo3yA1Ma1SsV-4tPt-75" style="edgeStyle=orthogonalEdgeStyle;rounded=0;orthogonalLoop=1;jettySize=auto;html=1;entryX=0;entryY=0.5;entryDx=0;entryDy=0;" edge="1" parent="1" source="LPXEo3yA1Ma1SsV-4tPt-25" target="LPXEo3yA1Ma1SsV-4tPt-50">
          <mxGeometry relative="1" as="geometry" />
        </mxCell>
        <mxCell id="LPXEo3yA1Ma1SsV-4tPt-76" style="edgeStyle=orthogonalEdgeStyle;rounded=0;orthogonalLoop=1;jettySize=auto;html=1;endArrow=diamondThin;endFill=1;" edge="1" parent="1" source="LPXEo3yA1Ma1SsV-4tPt-45" target="LPXEo3yA1Ma1SsV-4tPt-32">
          <mxGeometry relative="1" as="geometry" />
        </mxCell>
        <mxCell id="LPXEo3yA1Ma1SsV-4tPt-79" value="1:1" style="edgeLabel;html=1;align=center;verticalAlign=middle;resizable=0;points=[];" vertex="1" connectable="0" parent="LPXEo3yA1Ma1SsV-4tPt-76">
          <mxGeometry x="0.8326" relative="1" as="geometry">
            <mxPoint as="offset" />
          </mxGeometry>
        </mxCell>
        <mxCell id="LPXEo3yA1Ma1SsV-4tPt-77" style="edgeStyle=orthogonalEdgeStyle;rounded=0;orthogonalLoop=1;jettySize=auto;html=1;endArrow=diamondThin;endFill=0;" edge="1" parent="1" source="LPXEo3yA1Ma1SsV-4tPt-38" target="LPXEo3yA1Ma1SsV-4tPt-25">
          <mxGeometry relative="1" as="geometry">
            <mxPoint x="250" y="600" as="targetPoint" />
          </mxGeometry>
        </mxCell>
        <mxCell id="LPXEo3yA1Ma1SsV-4tPt-81" value="1:1" style="edgeLabel;html=1;align=center;verticalAlign=middle;resizable=0;points=[];" vertex="1" connectable="0" parent="LPXEo3yA1Ma1SsV-4tPt-77">
          <mxGeometry x="0.7158" y="3" relative="1" as="geometry">
            <mxPoint as="offset" />
          </mxGeometry>
        </mxCell>
        <mxCell id="LPXEo3yA1Ma1SsV-4tPt-78" style="edgeStyle=orthogonalEdgeStyle;rounded=0;orthogonalLoop=1;jettySize=auto;html=1;endArrow=diamondThin;endFill=0;exitX=1.002;exitY=0.859;exitDx=0;exitDy=0;exitPerimeter=0;" edge="1" parent="1" source="LPXEo3yA1Ma1SsV-4tPt-46">
          <mxGeometry relative="1" as="geometry">
            <mxPoint x="470" y="662" as="targetPoint" />
            <mxPoint x="260" y="766.0000000000002" as="sourcePoint" />
          </mxGeometry>
        </mxCell>
        <mxCell id="LPXEo3yA1Ma1SsV-4tPt-80" value="1:*" style="edgeLabel;html=1;align=center;verticalAlign=middle;resizable=0;points=[];" vertex="1" connectable="0" parent="LPXEo3yA1Ma1SsV-4tPt-78">
          <mxGeometry x="0.8326" y="1" relative="1" as="geometry">
            <mxPoint as="offset" />
          </mxGeometry>
        </mxCell>
      </root>
    </mxGraphModel>
  </diagram>
</mxfile>
